<mxfile host="app.diagrams.net" modified="2023-11-12T12:45:00.399Z" agent="Mozilla/5.0 (Windows NT 10.0; Win64; x64) AppleWebKit/537.36 (KHTML, like Gecko) Chrome/119.0.0.0 Safari/537.36" version="22.1.0" etag="fuNs9Ac67UA4oIFNSSG9" type="github">
  <diagram name="Page-1" id="VFiT9F2Z1Hp5iivYX7_o">
    <mxGraphModel>
      <root>
        <mxCell id="0" />
        <mxCell id="1" parent="0" />
      </root>
    </mxGraphModel>
  </diagram>
</mxfile>
